<?xml version="1.0" encoding="UTF-8"?>
<!DOCTYPE svg PUBLIC "-//W3C//DTD SVG 1.1//EN" "http://www.w3.org/Graphics/SVG/1.1/DTD/svg11.dtd">
<svg version="1.1" xmlns="http://www.w3.org/2000/svg" xmlns:xlink="http://www.w3.org/1999/xlink" x="0" y="0" width="432" height="255" viewBox="0, 0, 432, 255">
  <g id="Layer_1">
    <path d="M31.134,145.184 C41.326,121.043 106.758,101.184 199.542,101.184" fill-opacity="0" stroke="#3285B6" stroke-width="1"/>
    <path d="M199.542,101.184 C264.912,64.987 329.835,58.184 400.057,58.184" fill-opacity="0" stroke="#3285B6" stroke-width="1" stroke-linecap="round" stroke-linejoin="round"/>
    <path d="M199.542,102.196 C182.744,111.255 167.055,125.128 158.774,144.173" fill-opacity="0" stroke="#3285B6" stroke-width="1" stroke-dasharray="6,5" stroke-linecap="round" stroke-linejoin="round"/>
    <path d="M12.661,145.184 L420.339,145.184" fill-opacity="0" stroke="#000000" stroke-width="4"/>
    <g>
      <path d="M40.134,75.179 L190.542,75.179" fill-opacity="0" stroke="#000000" stroke-width="1"/>
      <path d="M40.134,72.179 L32.134,75.179 L40.134,78.179 M40.134,75.179 L32.134,75.179" fill-opacity="0" stroke="#000000" stroke-width="1" stroke-opacity="1"/>
      <path d="M190.542,78.179 L198.542,75.179 L190.542,72.179 M190.542,75.179 L198.542,75.179" fill-opacity="0" stroke="#000000" stroke-width="1" stroke-opacity="1"/>
    </g>
    <g>
      <path d="M40.134,28.626 L391.057,28.626" fill-opacity="0" stroke="#000000" stroke-width="1"/>
      <path d="M40.134,25.626 L32.134,28.626 L40.134,31.626 M40.134,28.626 L32.134,28.626" fill-opacity="0" stroke="#000000" stroke-width="1" stroke-opacity="1"/>
      <path d="M391.057,31.626 L399.057,28.626 L391.057,25.626 M391.057,28.626 L399.057,28.626" fill-opacity="0" stroke="#000000" stroke-width="1" stroke-opacity="1"/>
    </g>
    <g>
      <path d="M167.774,55.38 L190.542,55.38" fill-opacity="0" stroke="#000000" stroke-width="1"/>
      <path d="M167.774,52.38 L159.774,55.38 L167.774,58.38 M167.774,55.38 L159.774,55.38" fill-opacity="0" stroke="#000000" stroke-width="1" stroke-opacity="1"/>
      <path d="M190.542,58.38 L198.542,55.38 L190.542,52.38 M190.542,55.38 L198.542,55.38" fill-opacity="0" stroke="#000000" stroke-width="1" stroke-opacity="1"/>
    </g>
    <g id="Layer_1">
      <path d="M106.955,60.195 C107.062,59.729 107.475,58.079 108.73,58.079 C108.82,58.079 109.25,58.079 109.627,58.312 C109.125,58.402 108.766,58.85 108.766,59.28 C108.766,59.567 108.963,59.908 109.447,59.908 C109.842,59.908 110.416,59.585 110.416,58.868 C110.416,57.935 109.358,57.684 108.748,57.684 C107.708,57.684 107.08,58.635 106.865,59.047 C106.417,57.864 105.448,57.684 104.928,57.684 C103.063,57.684 102.041,59.998 102.041,60.446 C102.041,60.625 102.22,60.625 102.256,60.625 C102.4,60.625 102.454,60.589 102.489,60.428 C103.099,58.527 104.283,58.079 104.892,58.079 C105.233,58.079 105.861,58.24 105.861,59.28 C105.861,59.836 105.556,61.038 104.892,63.548 C104.606,64.66 103.978,65.413 103.189,65.413 C103.081,65.413 102.669,65.413 102.292,65.18 C102.741,65.09 103.135,64.714 103.135,64.212 C103.135,63.728 102.741,63.584 102.472,63.584 C101.934,63.584 101.485,64.05 101.485,64.624 C101.485,65.449 102.382,65.808 103.171,65.808 C104.354,65.808 105,64.553 105.054,64.445 C105.269,65.108 105.915,65.808 106.991,65.808 C108.838,65.808 109.86,63.494 109.86,63.046 C109.86,62.867 109.698,62.867 109.645,62.867 C109.483,62.867 109.447,62.939 109.411,63.064 C108.82,64.983 107.6,65.413 107.026,65.413 C106.327,65.413 106.04,64.839 106.04,64.23 C106.04,63.835 106.148,63.441 106.345,62.652 z" fill="#000000"/>
      <path d="M114.302,63.343 L115.583,63.343 C115.821,63.343 115.984,63.343 115.984,63.067 C115.984,62.891 115.821,62.891 115.608,62.891 L114.415,62.891 L114.88,61.033 C114.892,60.971 114.917,60.908 114.917,60.858 C114.917,60.632 114.742,60.456 114.491,60.456 C114.177,60.456 113.989,60.669 113.901,60.996 C113.813,61.31 113.976,60.707 113.424,62.891 L112.143,62.891 C111.905,62.891 111.742,62.891 111.742,63.167 C111.742,63.343 111.892,63.343 112.118,63.343 L113.311,63.343 L112.57,66.306 C112.495,66.619 112.382,67.071 112.382,67.235 C112.382,67.975 113.009,68.427 113.725,68.427 C115.118,68.427 115.909,66.67 115.909,66.506 C115.909,66.343 115.746,66.343 115.708,66.343 C115.558,66.343 115.545,66.368 115.445,66.582 C115.093,67.373 114.453,68.076 113.763,68.076 C113.499,68.076 113.323,67.912 113.323,67.46 C113.323,67.335 113.373,67.071 113.399,66.946 z" fill="#000000"/>
    </g>
    <path d="M202.465,9.879 C202.178,9.879 201.927,9.879 201.676,10.13 C201.389,10.399 201.354,10.704 201.354,10.829 C201.354,11.26 201.676,11.457 202.017,11.457 C202.537,11.457 203.021,11.027 203.021,10.309 C203.021,9.431 202.178,8.767 200.905,8.767 C198.484,8.767 196.099,11.331 196.099,13.86 C196.099,15.474 197.139,16.891 199.004,16.891 C201.569,16.891 203.075,14.99 203.075,14.774 C203.075,14.667 202.967,14.541 202.86,14.541 C202.77,14.541 202.734,14.577 202.627,14.721 C201.21,16.496 199.255,16.496 199.04,16.496 C197.91,16.496 197.426,15.617 197.426,14.541 C197.426,13.806 197.785,12.067 198.395,10.955 C198.951,9.933 199.937,9.162 200.923,9.162 C201.533,9.162 202.214,9.395 202.465,9.879 z" fill="#000000" id="Layer_1"/>
    <g id="Layer_1">
      <path d="M176.156,38.96 C176.264,38.494 176.676,36.844 177.931,36.844 C178.021,36.844 178.451,36.844 178.828,37.077 C178.326,37.167 177.967,37.615 177.967,38.046 C177.967,38.333 178.165,38.673 178.649,38.673 C179.043,38.673 179.617,38.351 179.617,37.633 C179.617,36.701 178.559,36.45 177.949,36.45 C176.909,36.45 176.282,37.4 176.066,37.813 C175.618,36.629 174.65,36.45 174.13,36.45 C172.265,36.45 171.242,38.763 171.242,39.211 C171.242,39.391 171.422,39.391 171.458,39.391 C171.601,39.391 171.655,39.355 171.691,39.193 C172.301,37.293 173.484,36.844 174.094,36.844 C174.434,36.844 175.062,37.006 175.062,38.046 C175.062,38.602 174.757,39.803 174.094,42.314 C173.807,43.426 173.179,44.179 172.39,44.179 C172.283,44.179 171.87,44.179 171.494,43.946 C171.942,43.856 172.336,43.479 172.336,42.977 C172.336,42.493 171.942,42.35 171.673,42.35 C171.135,42.35 170.687,42.816 170.687,43.39 C170.687,44.215 171.583,44.573 172.372,44.573 C173.556,44.573 174.201,43.318 174.255,43.21 C174.47,43.874 175.116,44.573 176.192,44.573 C178.039,44.573 179.061,42.26 179.061,41.812 C179.061,41.632 178.9,41.632 178.846,41.632 C178.685,41.632 178.649,41.704 178.613,41.829 C178.021,43.748 176.802,44.179 176.228,44.179 C175.528,44.179 175.241,43.605 175.241,42.995 C175.241,42.601 175.349,42.206 175.546,41.417 z" fill="#000000"/>
      <path d="M183.228,44.205 C183.579,44.205 184.571,44.18 185.249,43.941 C186.177,43.615 186.353,43.012 186.353,42.636 C186.353,41.945 185.663,41.531 184.797,41.531 C183.29,41.531 181.257,42.686 181.257,44.833 C181.257,46.1 182.048,47.192 183.516,47.192 C185.638,47.192 186.629,45.95 186.629,45.774 C186.629,45.699 186.516,45.561 186.416,45.561 C186.341,45.561 186.316,45.586 186.215,45.686 C185.236,46.841 183.767,46.841 183.541,46.841 C182.788,46.841 182.286,46.339 182.286,45.322 C182.286,45.146 182.286,44.895 182.437,44.205 z M182.537,43.853 C183.052,42.033 184.445,41.883 184.797,41.883 C185.349,41.883 185.813,42.159 185.813,42.636 C185.813,43.853 183.692,43.853 183.152,43.853 z" fill="#000000"/>
    </g>
    <g>
      <path d="M40.134,170.679 L187.599,170.726" fill-opacity="0" stroke="#000000" stroke-width="1"/>
      <path d="M40.135,167.679 L32.134,170.677 L40.133,173.679 M40.134,170.679 L32.134,170.677" fill-opacity="0" stroke="#000000" stroke-width="1" stroke-opacity="1"/>
      <path d="M187.598,173.726 L195.599,170.729 L187.6,167.726 M187.599,170.726 L195.599,170.729" fill-opacity="0" stroke="#000000" stroke-width="1" stroke-opacity="1"/>
    </g>
    <g>
      <path d="M167.774,187.291 L190.542,187.291" fill-opacity="0" stroke="#000000" stroke-width="1"/>
      <path d="M167.774,184.291 L159.774,187.291 L167.774,190.291 M167.774,187.291 L159.774,187.291" fill-opacity="0" stroke="#000000" stroke-width="1" stroke-opacity="1"/>
      <path d="M190.542,190.291 L198.542,187.291 L190.542,184.291 M190.542,187.291 L198.542,187.291" fill-opacity="0" stroke="#000000" stroke-width="1" stroke-opacity="1"/>
    </g>
    <g>
      <path d="M167.774,224.184 L391.057,224.184" fill-opacity="0" stroke="#000000" stroke-width="1"/>
      <path d="M167.774,221.184 L159.774,224.184 L167.774,227.184 M167.774,224.184 L159.774,224.184" fill-opacity="0" stroke="#000000" stroke-width="1" stroke-opacity="1"/>
      <path d="M391.057,227.184 L399.057,224.184 L391.057,221.184 M391.057,224.184 L399.057,224.184" fill-opacity="0" stroke="#000000" stroke-width="1" stroke-opacity="1"/>
    </g>
    <text transform="matrix(1, 0, 0, 1, 115.064, 189.296)">
      <tspan x="-4.5" y="2.995" font-family="CMUSerif-Roman" font-size="18" fill="#000000">1</tspan>
    </text>
    <text transform="matrix(1, 0, 0, 1, 178.658, 205.857)">
      <tspan x="-4.5" y="2.358" font-family="CMUSerif-Roman" font-size="18" fill="#000000">2</tspan>
    </text>
    <text transform="matrix(1, 0, 0, 1, 278.915, 244.717)">
      <tspan x="-4.5" y="3.63" font-family="CMUSerif-Roman" font-size="18" fill="#000000">3</tspan>
    </text>
  </g>
</svg>
