<?xml version="1.0" encoding="UTF-8"?>
<!DOCTYPE svg PUBLIC "-//W3C//DTD SVG 1.1//EN" "http://www.w3.org/Graphics/SVG/1.1/DTD/svg11.dtd">
<svg version="1.1" xmlns="http://www.w3.org/2000/svg" xmlns:xlink="http://www.w3.org/1999/xlink" x="0" y="0" width="468" height="252" viewBox="0, 0, 468, 252">
  <g id="Layer_1">
    <path d="M12.583,6.401 L12.583,146.401" fill-opacity="0" stroke="#000000" stroke-width="3"/>
    <path d="M160.583,50.401 L160.583,135.401" fill-opacity="0" stroke="#000000" stroke-width="3"/>
    <path d="M399.583,88.401 L398.583,141.401" fill-opacity="0" stroke="#000000" stroke-width="3"/>
    <path d="M12.583,6.401 L160.583,50.401" fill-opacity="0" stroke="#000000" stroke-width="3"/>
    <path d="M160.583,50.401 L399.583,88.401" fill-opacity="0" stroke="#000000" stroke-width="3"/>
    <path d="M398.583,141.401 L160.583,135.401" fill-opacity="0" stroke="#000000" stroke-width="3"/>
    <path d="M160.583,135.401 L12.583,146.401" fill-opacity="0" stroke="#000000" stroke-width="3"/>
    <g id="Layer_1">
      <path d="M177.172,105.201 C176.79,105.201 176.455,105.201 176.12,105.536 C175.738,105.894 175.69,106.301 175.69,106.468 C175.69,107.042 176.12,107.305 176.575,107.305 C177.268,107.305 177.914,106.731 177.914,105.775 C177.914,104.603 176.79,103.718 175.092,103.718 C171.864,103.718 168.684,107.138 168.684,110.509 C168.684,112.661 170.071,114.55 172.558,114.55 C175.977,114.55 177.985,112.015 177.985,111.728 C177.985,111.585 177.842,111.418 177.698,111.418 C177.579,111.418 177.531,111.465 177.388,111.657 C175.499,114.024 172.892,114.024 172.605,114.024 C171.099,114.024 170.454,112.852 170.454,111.418 C170.454,110.437 170.932,108.118 171.745,106.635 C172.486,105.273 173.801,104.244 175.116,104.244 C175.929,104.244 176.838,104.555 177.172,105.201 z" fill="#000000"/>
      <path d="M186.505,114.829 L185.936,114.829 C185.886,115.197 185.718,116.184 185.501,116.352 C185.367,116.452 184.078,116.452 183.844,116.452 L180.764,116.452 C182.521,114.896 183.107,114.427 184.112,113.64 C185.35,112.653 186.505,111.615 186.505,110.025 C186.505,108 184.731,106.761 182.588,106.761 C180.513,106.761 179.107,108.217 179.107,109.757 C179.107,110.611 179.827,110.695 179.994,110.695 C180.396,110.695 180.881,110.41 180.881,109.807 C180.881,109.506 180.764,108.92 179.894,108.92 C180.413,107.732 181.551,107.364 182.337,107.364 C184.011,107.364 184.881,108.669 184.881,110.025 C184.881,111.481 183.844,112.636 183.308,113.239 L179.274,117.222 C179.107,117.373 179.107,117.406 179.107,117.875 L186.003,117.875 z" fill="#000000"/>
      <path d="M193.632,114.263 C193.632,112.685 193.034,111.752 192.102,111.752 C191.313,111.752 190.835,112.35 190.835,113.019 C190.835,113.665 191.313,114.287 192.102,114.287 C192.389,114.287 192.7,114.191 192.939,113.976 C193.01,113.928 193.034,113.904 193.058,113.904 C193.082,113.904 193.106,113.928 193.106,114.263 C193.106,116.032 192.269,117.467 191.48,118.256 C191.217,118.519 191.217,118.567 191.217,118.638 C191.217,118.806 191.337,118.901 191.456,118.901 C191.719,118.901 193.632,117.06 193.632,114.263 z" fill="#000000"/>
      <path d="M210.293,102.332 C210.293,100.754 209.862,97.43 207.424,97.43 C204.1,97.43 200.418,104.173 200.418,109.648 C200.418,111.896 201.111,114.55 203.287,114.55 C206.658,114.55 210.293,107.688 210.293,102.332 z M202.952,105.607 C203.359,104.077 203.837,102.164 204.793,100.467 C205.439,99.295 206.324,97.956 207.4,97.956 C208.571,97.956 208.715,99.486 208.715,100.849 C208.715,102.021 208.523,103.24 207.95,105.607 z M207.734,106.372 C207.471,107.472 206.969,109.505 206.061,111.226 C205.224,112.852 204.315,114.024 203.287,114.024 C202.498,114.024 201.996,113.33 201.996,111.107 C201.996,110.102 202.139,108.716 202.761,106.372 z" fill="#000000"/>
      <path d="M219.083,114.829 L218.513,114.829 C218.463,115.197 218.296,116.184 218.078,116.352 C217.944,116.452 216.656,116.452 216.421,116.452 L213.342,116.452 C215.099,114.896 215.685,114.427 216.689,113.64 C217.928,112.653 219.083,111.615 219.083,110.025 C219.083,108 217.308,106.761 215.166,106.761 C213.091,106.761 211.685,108.217 211.685,109.757 C211.685,110.611 212.404,110.695 212.572,110.695 C212.973,110.695 213.459,110.41 213.459,109.807 C213.459,109.506 213.342,108.92 212.471,108.92 C212.99,107.732 214.128,107.364 214.915,107.364 C216.589,107.364 217.459,108.669 217.459,110.025 C217.459,111.481 216.421,112.636 215.886,113.239 L211.852,117.222 C211.685,117.373 211.685,117.406 211.685,117.875 L218.58,117.875 z" fill="#000000"/>
    </g>
    <g id="Layer_1">
      <path d="M31.139,99.729 C30.757,99.729 30.422,99.729 30.087,100.064 C29.705,100.423 29.657,100.829 29.657,100.997 C29.657,101.57 30.087,101.833 30.542,101.833 C31.235,101.833 31.881,101.26 31.881,100.303 C31.881,99.132 30.757,98.247 29.059,98.247 C25.831,98.247 22.651,101.666 22.651,105.037 C22.651,107.189 24.038,109.078 26.525,109.078 C29.944,109.078 31.952,106.544 31.952,106.257 C31.952,106.113 31.809,105.946 31.665,105.946 C31.546,105.946 31.498,105.994 31.355,106.185 C29.466,108.552 26.859,108.552 26.573,108.552 C25.066,108.552 24.421,107.381 24.421,105.946 C24.421,104.966 24.899,102.646 25.712,101.164 C26.453,99.801 27.768,98.773 29.083,98.773 C29.896,98.773 30.805,99.084 31.139,99.729 z" fill="#000000"/>
      <path d="M37.627,101.758 C37.627,101.307 37.593,101.29 37.125,101.29 C36.053,102.344 34.53,102.361 33.844,102.361 L33.844,102.964 C34.246,102.964 35.35,102.964 36.271,102.495 L36.271,111.031 C36.271,111.583 36.271,111.801 34.597,111.801 L33.961,111.801 L33.961,112.403 C34.263,112.387 36.321,112.336 36.94,112.336 C37.459,112.336 39.568,112.387 39.936,112.403 L39.936,111.801 L39.3,111.801 C37.627,111.801 37.627,111.583 37.627,111.031 z" fill="#000000"/>
      <path d="M47.599,108.791 C47.599,107.213 47.001,106.281 46.069,106.281 C45.28,106.281 44.802,106.879 44.802,107.548 C44.802,108.194 45.28,108.815 46.069,108.815 C46.356,108.815 46.667,108.72 46.906,108.504 C46.977,108.457 47.001,108.433 47.025,108.433 C47.049,108.433 47.073,108.457 47.073,108.791 C47.073,110.561 46.236,111.995 45.447,112.784 C45.184,113.047 45.184,113.095 45.184,113.167 C45.184,113.334 45.304,113.43 45.423,113.43 C45.686,113.43 47.599,111.589 47.599,108.791 z" fill="#000000"/>
      <path d="M64.26,96.86 C64.26,95.282 63.829,91.959 61.391,91.959 C58.067,91.959 54.385,98.701 54.385,104.177 C54.385,106.424 55.078,109.078 57.254,109.078 C60.626,109.078 64.26,102.216 64.26,96.86 z M56.919,100.136 C57.326,98.606 57.804,96.693 58.761,94.995 C59.406,93.824 60.291,92.485 61.367,92.485 C62.538,92.485 62.682,94.015 62.682,95.378 C62.682,96.549 62.491,97.769 61.917,100.136 z M61.701,100.901 C61.438,102.001 60.936,104.033 60.028,105.755 C59.191,107.381 58.282,108.552 57.254,108.552 C56.465,108.552 55.963,107.859 55.963,105.635 C55.963,104.631 56.106,103.244 56.728,100.901 z" fill="#000000"/>
      <path d="M70.204,101.758 C70.204,101.307 70.171,101.29 69.702,101.29 C68.631,102.344 67.108,102.361 66.422,102.361 L66.422,102.964 C66.823,102.964 67.928,102.964 68.849,102.495 L68.849,111.031 C68.849,111.583 68.849,111.801 67.175,111.801 L66.539,111.801 L66.539,112.403 C66.84,112.387 68.899,112.336 69.518,112.336 C70.037,112.336 72.146,112.387 72.514,112.403 L72.514,111.801 L71.878,111.801 C70.204,111.801 70.204,111.583 70.204,111.031 z" fill="#000000"/>
    </g>
    <g id="Layer_1">
      <path d="M416.022,121.201 C415.639,121.201 415.304,121.201 414.97,121.535 C414.587,121.894 414.539,122.301 414.539,122.468 C414.539,123.042 414.97,123.305 415.424,123.305 C416.117,123.305 416.763,122.731 416.763,121.775 C416.763,120.603 415.639,119.718 413.942,119.718 C410.714,119.718 407.534,123.137 407.534,126.509 C407.534,128.661 408.92,130.55 411.407,130.55 C414.826,130.55 416.835,128.015 416.835,127.728 C416.835,127.585 416.691,127.417 416.548,127.417 C416.428,127.417 416.38,127.465 416.237,127.657 C414.348,130.024 411.742,130.024 411.455,130.024 C409.949,130.024 409.303,128.852 409.303,127.417 C409.303,126.437 409.781,124.118 410.594,122.635 C411.335,121.272 412.65,120.244 413.965,120.244 C414.778,120.244 415.687,120.555 416.022,121.201 z" fill="#000000"/>
      <path d="M421.471,128.284 C422.777,128.284 423.714,129.188 423.714,130.979 C423.714,133.055 422.509,133.674 421.538,133.674 C420.869,133.674 419.396,133.49 418.693,132.502 C419.48,132.469 419.664,131.916 419.664,131.565 C419.664,131.029 419.262,130.644 418.743,130.644 C418.275,130.644 417.806,130.929 417.806,131.615 C417.806,133.188 419.547,134.209 421.572,134.209 C423.898,134.209 425.505,132.653 425.505,130.979 C425.505,129.674 424.434,128.368 422.593,127.983 C424.35,127.347 424.986,126.092 424.986,125.071 C424.986,123.749 423.463,122.761 421.605,122.761 C419.747,122.761 418.325,123.665 418.325,125.004 C418.325,125.573 418.693,125.891 419.195,125.891 C419.714,125.891 420.049,125.506 420.049,125.037 C420.049,124.552 419.714,124.201 419.195,124.167 C419.781,123.431 420.936,123.247 421.555,123.247 C422.308,123.247 423.363,123.615 423.363,125.071 C423.363,125.774 423.128,126.544 422.693,127.063 C422.141,127.699 421.672,127.732 420.835,127.782 C420.417,127.816 420.383,127.816 420.3,127.833 C420.266,127.833 420.132,127.866 420.132,128.05 C420.132,128.284 420.283,128.284 420.568,128.284 z" fill="#000000"/>
      <path d="M432.481,130.263 C432.481,128.685 431.884,127.752 430.951,127.752 C430.162,127.752 429.684,128.35 429.684,129.019 C429.684,129.665 430.162,130.287 430.951,130.287 C431.238,130.287 431.549,130.191 431.788,129.976 C431.86,129.928 431.884,129.904 431.908,129.904 C431.932,129.904 431.955,129.928 431.955,130.263 C431.955,132.032 431.119,133.467 430.33,134.256 C430.067,134.519 430.067,134.567 430.067,134.638 C430.067,134.806 430.186,134.901 430.306,134.901 C430.569,134.901 432.481,133.06 432.481,130.263 z" fill="#000000"/>
      <path d="M449.142,118.332 C449.142,116.753 448.712,113.43 446.273,113.43 C442.949,113.43 439.267,120.173 439.267,125.648 C439.267,127.896 439.961,130.55 442.137,130.55 C445.508,130.55 449.142,123.687 449.142,118.332 z M441.802,121.607 C442.208,120.077 442.686,118.164 443.643,116.467 C444.288,115.295 445.173,113.956 446.249,113.956 C447.421,113.956 447.564,115.486 447.564,116.849 C447.564,118.021 447.373,119.24 446.799,121.607 z M446.584,122.372 C446.321,123.472 445.819,125.505 444.91,127.226 C444.073,128.852 443.165,130.024 442.137,130.024 C441.347,130.024 440.845,129.33 440.845,127.107 C440.845,126.102 440.989,124.716 441.611,122.372 z" fill="#000000"/>
      <path d="M454.049,128.284 C455.354,128.284 456.292,129.188 456.292,130.979 C456.292,133.055 455.087,133.674 454.116,133.674 C453.446,133.674 451.974,133.49 451.271,132.502 C452.057,132.469 452.241,131.916 452.241,131.565 C452.241,131.029 451.84,130.644 451.321,130.644 C450.852,130.644 450.384,130.929 450.384,131.615 C450.384,133.188 452.124,134.209 454.149,134.209 C456.476,134.209 458.083,132.653 458.083,130.979 C458.083,129.674 457.011,128.368 455.17,127.983 C456.928,127.347 457.564,126.092 457.564,125.071 C457.564,123.749 456.041,122.761 454.183,122.761 C452.325,122.761 450.902,123.665 450.902,125.004 C450.902,125.573 451.271,125.891 451.773,125.891 C452.292,125.891 452.626,125.506 452.626,125.037 C452.626,124.552 452.292,124.201 451.773,124.167 C452.358,123.431 453.513,123.247 454.133,123.247 C454.886,123.247 455.94,123.615 455.94,125.071 C455.94,125.774 455.706,126.544 455.271,127.063 C454.718,127.699 454.25,127.732 453.413,127.782 C452.995,127.816 452.961,127.816 452.877,127.833 C452.844,127.833 452.71,127.866 452.71,128.05 C452.71,128.284 452.861,128.284 453.145,128.284 z" fill="#000000"/>
    </g>
    <g>
      <path d="M11.583,232.491 L390.383,232.491" fill-opacity="0" stroke="#000000" stroke-width="2"/>
      <path d="M390.383,232.491 L387.983,236.091 L397.583,232.491 L387.983,228.891 z" fill="#000000" fill-opacity="1" stroke="#000000" stroke-width="2" stroke-opacity="1"/>
    </g>
    <g id="Layer_1">
      <path d="M247.845,203.593 C247.845,203.569 247.845,203.33 247.534,203.33 C246.984,203.33 245.238,203.521 244.617,203.569 C244.425,203.593 244.162,203.617 244.162,204.047 C244.162,204.334 244.378,204.334 244.736,204.334 C245.884,204.334 245.932,204.502 245.932,204.741 C245.932,204.908 245.717,205.721 245.597,206.223 L243.636,214.018 C243.349,215.213 243.254,215.596 243.254,216.433 C243.254,218.704 244.521,220.187 246.29,220.187 C249.112,220.187 252.053,216.624 252.053,213.181 C252.053,211.005 250.786,209.355 248.873,209.355 C247.773,209.355 246.793,210.049 246.075,210.79 z M245.597,212.631 C245.74,212.105 245.74,212.057 245.956,211.794 C247.127,210.24 248.203,209.881 248.825,209.881 C249.686,209.881 250.331,210.599 250.331,212.129 C250.331,213.54 249.542,216.289 249.112,217.198 C248.323,218.8 247.223,219.661 246.29,219.661 C245.477,219.661 244.688,219.015 244.688,217.246 C244.688,216.792 244.688,216.337 245.071,214.831 z" fill="#000000"/>
      <path d="M262.889,202.9 C263.008,202.589 263.008,202.493 263.008,202.469 C263.008,202.206 262.793,201.991 262.53,201.991 C262.363,201.991 262.195,202.063 262.124,202.206 L253.827,224.993 C253.707,225.304 253.707,225.399 253.707,225.423 C253.707,225.686 253.923,225.901 254.186,225.901 C254.496,225.901 254.568,225.734 254.712,225.327 z" fill="#000000"/>
      <path d="M267.383,218.083 L269.918,215.62 C273.648,212.32 275.083,211.029 275.083,208.638 C275.083,205.912 272.931,204 270.014,204 C267.312,204 265.542,206.199 265.542,208.327 C265.542,209.666 266.738,209.666 266.81,209.666 C267.216,209.666 268.053,209.379 268.053,208.399 C268.053,207.777 267.623,207.156 266.786,207.156 C266.594,207.156 266.547,207.156 266.475,207.18 C267.025,205.625 268.316,204.741 269.703,204.741 C271.879,204.741 272.907,206.678 272.907,208.638 C272.907,210.551 271.711,212.44 270.396,213.922 L265.805,219.039 C265.542,219.302 265.542,219.35 265.542,219.924 L274.413,219.924 L275.083,215.763 L274.485,215.763 C274.365,216.481 274.198,217.533 273.959,217.891 C273.791,218.083 272.213,218.083 271.687,218.083 z" fill="#000000"/>
    </g>
    <g>
      <path d="M11.583,196.401 L152.383,197.346" fill-opacity="0" stroke="#000000" stroke-width="2"/>
      <path d="M152.383,197.346 L149.959,200.93 L159.583,197.395 L150.007,193.73 z" fill="#000000" fill-opacity="1" stroke="#000000" stroke-width="2" stroke-opacity="1"/>
    </g>
    <g id="Layer_1">
      <path d="M73.683,163.288 C73.946,163.025 73.946,162.977 73.946,162.905 C73.946,162.762 73.851,162.618 73.659,162.618 C73.516,162.618 73.42,162.738 73.277,162.905 L67.801,169.002 C66.845,165.966 66.654,165.368 66.104,164.101 C65.841,163.551 65.315,162.355 63.211,162.355 C61.824,162.355 61.202,163.599 61.202,163.933 C61.202,163.957 61.202,164.173 61.489,164.173 C61.704,164.173 61.752,164.029 61.8,163.91 C62.159,162.977 62.924,162.881 63.067,162.881 C63.785,162.881 64.502,164.699 64.908,165.751 C65.673,167.64 66.439,170.413 66.439,170.485 C66.439,170.509 66.439,170.557 66.247,170.748 L60.748,176.893 C60.485,177.156 60.485,177.204 60.485,177.275 C60.485,177.419 60.628,177.562 60.772,177.562 C60.939,177.562 61.059,177.395 61.154,177.299 L66.63,171.154 C67.395,173.641 67.682,174.574 68.256,175.912 C68.567,176.63 69.093,177.825 71.221,177.825 C72.607,177.825 73.253,176.582 73.253,176.271 C73.253,176.152 73.205,176.008 72.966,176.008 C72.727,176.008 72.703,176.104 72.631,176.343 C72.416,176.917 71.818,177.299 71.364,177.299 C70.145,177.299 68.519,171.513 67.993,169.672 z" fill="#000000"/>
      <path d="M82.617,178.662 C82.617,178.59 82.617,178.543 82.211,178.136 C79.222,175.123 78.457,170.604 78.457,166.946 C78.457,162.786 79.365,158.625 82.306,155.637 C82.617,155.35 82.617,155.302 82.617,155.23 C82.617,155.063 82.522,154.991 82.378,154.991 C82.139,154.991 79.987,156.617 78.576,159.654 C77.357,162.284 77.07,164.938 77.07,166.946 C77.07,168.811 77.333,171.704 78.648,174.406 C80.083,177.347 82.139,178.901 82.378,178.901 C82.522,178.901 82.617,178.83 82.617,178.662 z" fill="#000000"/>
      <path d="M89.717,156.593 C89.717,156.569 89.717,156.33 89.407,156.33 C88.857,156.33 87.111,156.521 86.49,156.569 C86.298,156.593 86.035,156.617 86.035,157.047 C86.035,157.334 86.25,157.334 86.609,157.334 C87.757,157.334 87.805,157.502 87.805,157.741 C87.805,157.908 87.589,158.721 87.47,159.223 L85.509,167.018 C85.222,168.213 85.127,168.596 85.127,169.433 C85.127,171.704 86.394,173.187 88.163,173.187 C90.985,173.187 93.926,169.624 93.926,166.181 C93.926,164.005 92.658,162.355 90.746,162.355 C89.646,162.355 88.665,163.049 87.948,163.79 z M87.47,165.631 C87.613,165.105 87.613,165.057 87.829,164.794 C89,163.24 90.076,162.881 90.698,162.881 C91.559,162.881 92.204,163.599 92.204,165.129 C92.204,166.54 91.415,169.289 90.985,170.198 C90.196,171.8 89.096,172.661 88.163,172.661 C87.35,172.661 86.561,172.015 86.561,170.246 C86.561,169.791 86.561,169.337 86.944,167.831 z" fill="#000000"/>
      <path d="M104.762,155.9 C104.881,155.589 104.881,155.493 104.881,155.469 C104.881,155.206 104.666,154.991 104.403,154.991 C104.236,154.991 104.068,155.063 103.997,155.206 L95.7,177.993 C95.58,178.303 95.58,178.399 95.58,178.423 C95.58,178.686 95.795,178.901 96.058,178.901 C96.369,178.901 96.441,178.734 96.584,178.327 z" fill="#000000"/>
      <path d="M109.254,171.083 L111.788,168.62 C115.518,165.32 116.953,164.029 116.953,161.638 C116.953,158.912 114.801,156.999 111.884,156.999 C109.182,156.999 107.413,159.199 107.413,161.327 C107.413,162.666 108.608,162.666 108.68,162.666 C109.087,162.666 109.923,162.379 109.923,161.399 C109.923,160.777 109.493,160.156 108.656,160.156 C108.465,160.156 108.417,160.156 108.345,160.18 C108.895,158.625 110.186,157.741 111.573,157.741 C113.749,157.741 114.777,159.677 114.777,161.638 C114.777,163.551 113.582,165.44 112.267,166.922 L107.676,172.039 C107.413,172.302 107.413,172.35 107.413,172.924 L116.284,172.924 L116.953,168.763 L116.355,168.763 C116.236,169.481 116.068,170.533 115.829,170.891 C115.662,171.083 114.084,171.083 113.558,171.083 z" fill="#000000"/>
      <path d="M125.083,166.946 C125.083,165.081 124.819,162.188 123.504,159.486 C122.07,156.545 120.014,154.991 119.774,154.991 C119.631,154.991 119.535,155.087 119.535,155.23 C119.535,155.302 119.535,155.35 119.99,155.78 C122.333,158.147 123.696,161.949 123.696,166.946 C123.696,171.035 122.811,175.243 119.846,178.256 C119.535,178.543 119.535,178.59 119.535,178.662 C119.535,178.806 119.631,178.901 119.774,178.901 C120.014,178.901 122.165,177.275 123.576,174.239 C124.796,171.609 125.083,168.955 125.083,166.946 z" fill="#000000"/>
    </g>
    <g id="Layer_1">
      <path d="M99.578,41.138 C99.435,40.684 99.291,40.636 99.028,40.636 C98.645,40.636 98.598,40.731 98.478,41.138 L93.887,55.364 C93.648,56.082 93.17,57.014 91.496,57.014 L91.496,57.755 C92.285,57.708 93.505,57.684 93.72,57.684 C94.413,57.684 95.681,57.732 96.422,57.755 L96.422,57.014 C95.131,56.99 94.581,56.345 94.581,55.771 C94.581,55.651 94.581,55.58 94.7,55.245 L98.287,44.103 L102.065,55.867 C102.184,56.201 102.184,56.249 102.184,56.297 C102.184,57.014 100.773,57.014 100.152,57.014 L100.152,57.755 C100.989,57.684 102.686,57.684 103.595,57.684 C104.527,57.684 105.603,57.732 106.536,57.755 L106.536,57.014 C104.719,57.014 104.647,56.871 104.36,55.986 z" fill="#000000"/>
      <path d="M112.941,50.699 C112.941,50.247 112.908,50.23 112.439,50.23 C111.368,51.284 109.845,51.301 109.159,51.301 L109.159,51.904 C109.56,51.904 110.665,51.904 111.586,51.435 L111.586,59.971 C111.586,60.523 111.586,60.741 109.912,60.741 L109.276,60.741 L109.276,61.343 C109.577,61.327 111.636,61.276 112.255,61.276 C112.774,61.276 114.883,61.327 115.251,61.343 L115.251,60.741 L114.615,60.741 C112.941,60.741 112.941,60.523 112.941,59.971 z" fill="#000000"/>
    </g>
    <g id="Layer_1">
      <path d="M255.105,69.05 C254.961,68.595 254.818,68.548 254.555,68.548 C254.172,68.548 254.124,68.643 254.005,69.05 L249.414,83.276 C249.175,83.994 248.697,84.926 247.023,84.926 L247.023,85.667 C247.812,85.62 249.031,85.596 249.247,85.596 C249.94,85.596 251.207,85.643 251.949,85.667 L251.949,84.926 C250.657,84.902 250.107,84.257 250.107,83.683 C250.107,83.563 250.107,83.492 250.227,83.157 L253.814,72.015 L257.591,83.778 C257.711,84.113 257.711,84.161 257.711,84.209 C257.711,84.926 256.3,84.926 255.678,84.926 L255.678,85.667 C256.515,85.596 258.213,85.596 259.122,85.596 C260.054,85.596 261.13,85.643 262.063,85.667 L262.063,84.926 C260.245,84.926 260.174,84.783 259.887,83.898 z" fill="#000000"/>
      <path d="M271.313,86.209 L270.744,86.209 C270.694,86.577 270.527,87.565 270.309,87.732 C270.175,87.833 268.886,87.833 268.652,87.833 L265.572,87.833 C267.33,86.276 267.916,85.807 268.92,85.021 C270.158,84.033 271.313,82.996 271.313,81.406 C271.313,79.38 269.539,78.142 267.397,78.142 C265.321,78.142 263.915,79.598 263.915,81.138 C263.915,81.991 264.635,82.075 264.803,82.075 C265.204,82.075 265.69,81.791 265.69,81.188 C265.69,80.887 265.572,80.301 264.702,80.301 C265.221,79.113 266.359,78.744 267.146,78.744 C268.819,78.744 269.69,80.05 269.69,81.406 C269.69,82.862 268.652,84.017 268.117,84.619 L264.083,88.603 C263.915,88.753 263.915,88.787 263.915,89.255 L270.811,89.255 z" fill="#000000"/>
    </g>
    <path d="M12.583,50.401 L83.583,50.401" fill-opacity="0" stroke="#000000" stroke-width="1"/>
    <path d="M160.583,77.401 L243.754,77.401" fill-opacity="0" stroke="#000000" stroke-width="1"/>
    <path d="M79.33,61.843 C83.583,57.96 81.64,54.276 75.701,50.401" fill-opacity="0" stroke="#000000" stroke-width="1"/>
    <path d="M12.583,50.401 L160.583,77.401" fill-opacity="0" stroke="#000000" stroke-width="1"/>
    <path d="M160.583,77.401 L398.583,105.401" fill-opacity="0" stroke="#000000" stroke-width="1"/>
    <path d="M234.038,85.76 C238.291,81.877 238.895,81.276 232.955,77.401" fill-opacity="0" stroke="#000000" stroke-width="1"/>
  </g>
</svg>
